<svg xmlns="http://www.w3.org/2000/svg" xmlns:xlink="http://www.w3.org/1999/xlink" viewBox="0 0 129.58 134.74"><defs><style>.cls-1{fill:#191919;}.cls-2{fill:#2f3030;}.cls-3{fill:#17bebb;}.cls-4{fill:#15877c;}.cls-5{fill:none;}.cls-6{fill:url(#Degradado_sin_nombre_18);}.cls-7{fill:url(#Degradado_sin_nombre_18-2);}.cls-8{fill:url(#Degradado_sin_nombre_18-4);}.cls-9{fill:url(#Degradado_sin_nombre_18-6);}.cls-10{fill:url(#Degradado_sin_nombre_18-7);}.cls-11{fill:url(#linear-gradient);}</style><linearGradient id="Degradado_sin_nombre_18" x1="88.02" y1="70.39" x2="88.02" y2="94.44" gradientUnits="userSpaceOnUse"><stop offset="0" stop-color="#fff"/><stop offset="0.22" stop-color="#fff" stop-opacity="0.76"/><stop offset="0.6" stop-color="#fff" stop-opacity="0.36"/><stop offset="0.87" stop-color="#fff" stop-opacity="0.1"/><stop offset="1" stop-color="#fff" stop-opacity="0"/></linearGradient><linearGradient id="Degradado_sin_nombre_18-2" x1="74.27" y1="70.39" x2="74.27" y2="94.44" xlink:href="#Degradado_sin_nombre_18"/><linearGradient id="Degradado_sin_nombre_18-4" x1="101.51" y1="70.39" x2="101.51" y2="94.44" xlink:href="#Degradado_sin_nombre_18"/><linearGradient id="Degradado_sin_nombre_18-6" x1="65.45" y1="70.39" x2="65.45" y2="94.44" xlink:href="#Degradado_sin_nombre_18"/><linearGradient id="Degradado_sin_nombre_18-7" x1="110.27" y1="70.39" x2="110.27" y2="94.44" xlink:href="#Degradado_sin_nombre_18"/><linearGradient id="linear-gradient" x1="68.35" y1="8.65" x2="21.4" y2="105.88" gradientUnits="userSpaceOnUse"><stop offset="0" stop-color="#69d5d3"/><stop offset="1" stop-color="#17bebb"/></linearGradient></defs><g id="Layer_2" data-name="Layer 2"><g id="OBJECTS"><path class="cls-1" d="M52.52,102.36h4.4a.19.19,0,0,1,.19.19v5.22a.19.19,0,0,1-.19.19h-4.4a1,1,0,0,1-1-1v-3.58A1,1,0,0,1,52.52,102.36Z"/><rect class="cls-2" x="86.84" y="69.39" width="1.93" height="13.06"/><rect class="cls-1" x="79.78" y="126.14" width="16.01" height="4.33" rx="0.78"/><rect class="cls-2" x="79.78" y="130.41" width="16.01" height="4.33" rx="0.78"/><circle class="cls-2" cx="87.93" cy="67.62" r="4.32"/><path class="cls-3" d="M90.16,69.85a3.15,3.15,0,1,1,0-4.45A3.15,3.15,0,0,1,90.16,69.85Z"/><path class="cls-4" d="M90.16,69.85a3.15,3.15,0,0,1-4.45,0l4.45-4.44A3.16,3.16,0,0,1,90.16,69.85Z"/><path class="cls-2" d="M115.41,58.15h-3.26V61a7.18,7.18,0,0,0-2.71,1.1l-2.16-2.16L105,62.25l2.22,2.22a7.79,7.79,0,0,0-.77,1.83h-3v3.26h2.84a7.36,7.36,0,0,0,1.11,2.71l-1.89,1.89,2.3,2.3,2-1.95a7.23,7.23,0,0,0,2.37.9v2.85h3.26v-3a7.35,7.35,0,0,0,2.48-1.21l2.17,2.18,2.31-2.31L120,71.58a6.91,6.91,0,0,0,.7-2h2.85V66.3h-3a7.42,7.42,0,0,0-.78-1.83L122,62.25l-2.3-2.31-2.16,2.16a7.34,7.34,0,0,0-2.17-1ZM116.5,68.2a3,3,0,1,1-3-3A3,3,0,0,1,116.5,68.2Z"/><path class="cls-5" d="M124.56,80.08a1.5,1.5,0,1,0,1.49,1.5A1.5,1.5,0,0,0,124.56,80.08Z"/><path class="cls-3" d="M65.47,126l-.33-.08Z"/><path class="cls-3" d="M109.19,82.44H66.41a5.29,5.29,0,0,0-5.29,5.3V95h0v19.27h13a1.29,1.29,0,0,1-.09-.16,2.42,2.42,0,0,1,0-2.44,2.46,2.46,0,0,1,2.12-1.21H99.62a2.47,2.47,0,0,1,2.17,3.64l-.1.17h12.8V87.74A5.3,5.3,0,0,0,109.19,82.44Zm4.06,11.47v1.86H106a4.71,4.71,0,0,1,.33,1.69v2.46a4.8,4.8,0,0,1-9.59,0V97.46A4.7,4.7,0,0,1,97,95.77H78.74a4.71,4.71,0,0,1,.33,1.69v2.46a4.8,4.8,0,0,1-9.59,0V97.46a4.71,4.71,0,0,1,.33-1.69h-7v-8a4.06,4.06,0,0,1,4.06-4.06h42.35a4.06,4.06,0,0,1,4.06,4.06Z"/><path class="cls-3" d="M61.12,120.48v.36a5.27,5.27,0,0,0,3.59,5A5.64,5.64,0,0,1,61.12,120.48Z"/><path class="cls-3" d="M110.9,125.83a5.27,5.27,0,0,0,3.59-5v-.36A5.65,5.65,0,0,1,110.9,125.83Z"/><path class="cls-3" d="M110.47,126l-.33.08Z"/><path class="cls-4" d="M65.14,126a3.06,3.06,0,0,1-.43-.13A3.06,3.06,0,0,0,65.14,126Z"/><path class="cls-4" d="M66.41,126.14a4.92,4.92,0,0,1-.94-.1A4.83,4.83,0,0,0,66.41,126.14Z"/><path class="cls-4" d="M110.9,125.83a4.14,4.14,0,0,1-.43.13A3.52,3.52,0,0,0,110.9,125.83Z"/><path class="cls-4" d="M110.14,126a5,5,0,0,1-1,.1A5,5,0,0,0,110.14,126Z"/><path class="cls-4" d="M87.93,121.14c-8.6,0-12.33-4.22-13.81-6.85h-13v.76h0v5.43a5.64,5.64,0,0,0,3.59,5.35,3.06,3.06,0,0,0,.43.13l.33.08a4.92,4.92,0,0,0,.94.1h42.78a5,5,0,0,0,1-.1l.33-.08a4.14,4.14,0,0,0,.43-.13,5.65,5.65,0,0,0,3.59-5.35v-6.19h-12.8C100.22,116.93,96.53,121.14,87.93,121.14Zm-22.48,2a1.28,1.28,0,1,1,1.27-1.28A1.28,1.28,0,0,1,65.45,123.1Zm44.82-2.55a1.28,1.28,0,1,1-1.28,1.27A1.27,1.27,0,0,1,110.27,120.55Z"/><path class="cls-1" d="M123.08,102.36h-.58V108h.58a1,1,0,0,0,1-1v-3.58A1,1,0,0,0,123.08,102.36Z"/><path class="cls-2" d="M118.49,107.77v-5.23a.19.19,0,0,1,.19-.18h3.82V97.91A2.89,2.89,0,0,0,119.61,95h-5.12a7.68,7.68,0,0,1,2.05.27v19.5a8.11,8.11,0,0,1-2.05.26h5.12a2.88,2.88,0,0,0,2.89-2.88V108h-3.82A.19.19,0,0,1,118.49,107.77Z"/><path class="cls-2" d="M118.68,102.36a.19.19,0,0,0-.19.18v5.23a.19.19,0,0,0,.19.18h3.82v-5.59Z"/><path class="cls-2" d="M55.45,97.37A8,8,0,0,0,53.1,103v4a8,8,0,0,0,6,7.75V95.29A8,8,0,0,0,55.45,97.37Z"/><path class="cls-1" d="M77.89,97.46v2.46a3.62,3.62,0,1,1-7.23,0V97.46a3.54,3.54,0,0,1,.44-1.69H69.81a4.71,4.71,0,0,0-.33,1.69v2.46a4.8,4.8,0,0,0,9.59,0V97.46a4.71,4.71,0,0,0-.33-1.69H77.45A3.54,3.54,0,0,1,77.89,97.46Z"/><path class="cls-2" d="M70.66,99.92a3.62,3.62,0,1,0,7.23,0V97.46a3.54,3.54,0,0,0-.44-1.69H76a2.6,2.6,0,0,1,.3.36,2.5,2.5,0,0,1,.39,1.33v2.46a2.43,2.43,0,0,1-4.55,1.21,2.48,2.48,0,0,1-.32-1.21V97.46a2.4,2.4,0,0,1,.69-1.69H71.1a3.54,3.54,0,0,0-.44,1.69Z"/><path class="cls-1" d="M105.13,97.46v2.46a3.62,3.62,0,1,1-7.23,0V97.46a3.54,3.54,0,0,1,.44-1.69H97a4.7,4.7,0,0,0-.32,1.69v2.46a4.8,4.8,0,0,0,9.59,0V97.46a4.71,4.71,0,0,0-.33-1.69h-1.29A3.54,3.54,0,0,1,105.13,97.46Z"/><path class="cls-2" d="M97.9,99.92a3.62,3.62,0,1,0,7.23,0V97.46a3.54,3.54,0,0,0-.44-1.69h-1.43a2,2,0,0,1,.29.36,2.42,2.42,0,0,1,.4,1.33v2.46a2.43,2.43,0,0,1-4.55,1.21,2.48,2.48,0,0,1-.32-1.21V97.46a2.4,2.4,0,0,1,.69-1.69H98.34a3.54,3.54,0,0,0-.44,1.69Z"/><path class="cls-1" d="M65.45,120.55a1.28,1.28,0,1,0,1.27,1.27A1.27,1.27,0,0,0,65.45,120.55Z"/><path class="cls-1" d="M110.27,123.1a1.28,1.28,0,1,0-1.28-1.28A1.27,1.27,0,0,0,110.27,123.1Z"/><path class="cls-1" d="M61.12,95a7.81,7.81,0,0,0-2.06.27v19.5a8.25,8.25,0,0,0,2.06.26V95Z"/><polygon class="cls-1" points="61.12 114.29 61.12 95.02 61.12 95.02 61.12 114.29 61.12 114.29"/><polygon class="cls-1" points="61.12 114.29 61.12 114.29 61.12 115.05 61.12 115.05 61.12 114.29"/><path class="cls-1" d="M116.54,95.29a7.68,7.68,0,0,0-2.05-.27v20a8.11,8.11,0,0,0,2.05-.26Z"/><path class="cls-2" d="M75.06,113.57a1.29,1.29,0,0,1,1.13-1.91H99.62a1.29,1.29,0,0,1,1.28,1.23,1.17,1.17,0,0,1-.15.67c-.12.23-.27.48-.43.73h1.37l.1-.17a2.47,2.47,0,0,0-2.17-3.64H76.19a2.46,2.46,0,0,0-2.12,1.21,2.42,2.42,0,0,0,0,2.44,1.29,1.29,0,0,0,.09.16h1.37C75.33,114,75.18,113.8,75.06,113.57Z"/><path class="cls-2" d="M87.93,121.14c8.6,0,12.29-4.21,13.76-6.85h-1.37c-.16.25-.34.5-.54.76C98,117.35,94.55,120,87.93,120s-10.1-2.61-11.89-4.91a8.47,8.47,0,0,1-.55-.76H74.12C75.6,116.92,79.33,121.14,87.93,121.14Z"/><path class="cls-3" d="M109.19,83.69H66.84a4.06,4.06,0,0,0-4.06,4.06v8h7a4.76,4.76,0,0,1,8.93,0H97a4.77,4.77,0,0,1,8.94,0h7.27v-8A4.06,4.06,0,0,0,109.19,83.69Zm-43.74,4.1a1.28,1.28,0,1,1,1.27-1.27A1.27,1.27,0,0,1,65.45,87.79Zm44.82,0a1.28,1.28,0,1,1,1.27-1.27A1.27,1.27,0,0,1,110.27,87.79Z"/><path class="cls-6" d="M109.19,83.69H66.84a4.06,4.06,0,0,0-4.06,4.06v8h7a4.76,4.76,0,0,1,8.93,0H97a4.77,4.77,0,0,1,8.94,0h7.27v-8A4.06,4.06,0,0,0,109.19,83.69Zm-43.74,4.1a1.28,1.28,0,1,1,1.27-1.27A1.27,1.27,0,0,1,65.45,87.79Zm44.82,0a1.28,1.28,0,1,1,1.27-1.27A1.27,1.27,0,0,1,110.27,87.79Z"/><path class="cls-1" d="M74.27,92.66a4.78,4.78,0,0,0-4.46,3.11H71.1a3.58,3.58,0,0,1,6.35,0h1.29A4.78,4.78,0,0,0,74.27,92.66Z"/><path class="cls-7" d="M74.27,92.66a4.78,4.78,0,0,0-4.46,3.11H71.1a3.58,3.58,0,0,1,6.35,0h1.29A4.78,4.78,0,0,0,74.27,92.66Z"/><path class="cls-2" d="M74.27,95a2.43,2.43,0,0,1,1.72.72l0,0h1.43a3.58,3.58,0,0,0-6.35,0h1.43A2.41,2.41,0,0,1,74.27,95Z"/><path class="cls-7" d="M74.27,95a2.43,2.43,0,0,1,1.72.72l0,0h1.43a3.58,3.58,0,0,0-6.35,0h1.43A2.41,2.41,0,0,1,74.27,95Z"/><path class="cls-1" d="M101.51,92.66A4.8,4.8,0,0,0,97,95.77h1.3a3.58,3.58,0,0,1,6.35,0H106A4.78,4.78,0,0,0,101.51,92.66Z"/><path class="cls-8" d="M101.51,92.66A4.8,4.8,0,0,0,97,95.77h1.3a3.58,3.58,0,0,1,6.35,0H106A4.78,4.78,0,0,0,101.51,92.66Z"/><path class="cls-2" d="M101.51,95a2.43,2.43,0,0,1,1.72.72l0,0h1.43a3.58,3.58,0,0,0-6.35,0h1.43A2.41,2.41,0,0,1,101.51,95Z"/><path class="cls-8" d="M101.51,95a2.43,2.43,0,0,1,1.72.72l0,0h1.43a3.58,3.58,0,0,0-6.35,0h1.43A2.41,2.41,0,0,1,101.51,95Z"/><path class="cls-1" d="M65.45,85.24a1.28,1.28,0,1,0,1.27,1.28A1.28,1.28,0,0,0,65.45,85.24Z"/><path class="cls-9" d="M65.45,85.24a1.28,1.28,0,1,0,1.27,1.28A1.28,1.28,0,0,0,65.45,85.24Z"/><path class="cls-1" d="M110.27,85.24a1.28,1.28,0,1,0,1.27,1.28A1.28,1.28,0,0,0,110.27,85.24Z"/><path class="cls-10" d="M110.27,85.24a1.28,1.28,0,1,0,1.27,1.28A1.28,1.28,0,0,0,110.27,85.24Z"/><path class="cls-1" d="M129.58,82.26V80.63H128.1a3.75,3.75,0,0,0-.39-.92l1.11-1.11-1.15-1.15-1.08,1.08a3.52,3.52,0,0,0-1.08-.49V76.55h-1.63V78a3.68,3.68,0,0,0-1.36.55l-1.08-1.08-1.15,1.15,1.12,1.11a3.75,3.75,0,0,0-.39.92h-1.49v1.63H121a3.57,3.57,0,0,0,.55,1.35l-1,1,1.16,1.15,1-1a3.49,3.49,0,0,0,1.19.45V86.6h1.63V85.12a3.78,3.78,0,0,0,1.24-.61l1.09,1.09L129,84.45l-1.18-1.18a3.77,3.77,0,0,0,.35-1Zm-5,.81a1.5,1.5,0,1,1,1.49-1.49A1.5,1.5,0,0,1,124.56,83.07Z"/><path class="cls-11" d="M46.47,116.22q-13.48,0-27,0a14.46,14.46,0,0,1-3.35-.3A11.1,11.1,0,0,1,7.5,104.78q0-33.65,0-67.3c0-2.77,0-5.54,0-8.3a11,11,0,0,1,8.17-10.45c3.31-.88,6.71-.29,10.06-.45.74,0,.54.54.54.91,0,5.52,4.5,10,10.65,10,11.37-.12,22.74,0,34.1,0,6.34,0,10.3-3.71,10.66-10,0-.7.26-.86.91-.85,2.42,0,4.84,0,7.26.05a10.57,10.57,0,0,1,6.45,2.35c3.1,2.5,4.23,5.84,4.2,9.72q-.06,10.05,0,20.11a3.69,3.69,0,0,0,3.75,3.93,3.64,3.64,0,0,0,3.66-3.74c0-7.52.15-15-.07-22.56-.27-8.81-7.69-16.37-16.46-17.18-2.9-.26-5.79-.1-8.69-.14-.64,0-1-.05-1-.87C81.35,3.76,77.41,0,71.24,0h-18C47.29,0,41.37-.06,35.45.09a9.61,9.61,0,0,0-9.06,8.59c-.23,2.12-.23,2.1-2.44,2.13-3.28,0-6.58-.26-9.81.56C5.65,13.5,0,20.91,0,30q0,18.6,0,37.22t0,37.22a20.19,20.19,0,0,0,.38,4.25,18.44,18.44,0,0,0,18.4,15c9.2,0,18.41,0,27.62,0a7.52,7.52,0,0,0,1.16-.06,3.67,3.67,0,0,0,3-4.57C50.09,117.14,48.77,116.22,46.47,116.22ZM33.75,10.41c0-2,.88-2.95,2.91-2.95H71.41c2,0,2.82.88,2.84,2.88q0,4.2,0,8.42c0,2-.88,2.87-3,2.88H36.8c-2.21,0-3-.84-3.06-3.06Q33.72,14.5,33.75,10.41Z"/><path class="cls-2" d="M69.57,54.88a3.68,3.68,0,0,0,3.72-3.13,3.77,3.77,0,0,0-2.36-4,5.91,5.91,0,0,0-2.17-.26H30.42a11.13,11.13,0,0,0-1.16,0,3.7,3.7,0,0,0,.55,7.38h26C60.42,54.89,65,54.91,69.57,54.88Z"/><path class="cls-2" d="M47.2,68.65c-5.78,0-11.57,0-17.35,0a3.74,3.74,0,1,0,0,7.46c2.89,0,5.79,0,8.68,0s5.78,0,8.67,0c2.41,0,4.1-1.56,4.11-3.71A3.81,3.81,0,0,0,47.2,68.65Z"/></g></g></svg>